<svg width="41" height="41" viewBox="0 0 41 41" fill="none" xmlns="http://www.w3.org/2000/svg">
<path d="M39.4531 35.3125C40.1562 36.0938 40.1562 37.2656 39.375 37.9688L37.1875 40.1563C36.4844 40.9375 35.3125 40.9375 34.5312 40.1563L26.7969 32.4219C26.4062 32.0313 26.25 31.5625 26.25 31.0938V29.7656C23.4375 31.9531 20 33.2031 16.25 33.2031C7.26562 33.2031 0 25.9375 0 16.9531C0 8.04689 7.26562 0.70314 16.25 0.70314C25.1562 0.70314 32.5 8.04689 32.5 16.9531C32.5 20.7813 31.1719 24.2188 29.0625 26.9531H30.3125C30.7812 26.9531 31.25 27.1875 31.6406 27.5L39.4531 35.3125ZM16.25 26.9531C21.7188 26.9531 26.25 22.5 26.25 16.9531C26.25 11.4844 21.7188 6.95314 16.25 6.95314C10.7031 6.95314 6.25 11.4844 6.25 16.9531C6.25 22.5 10.7031 26.9531 16.25 26.9531Z" fill="white"/>
</svg>
